<svg width="182" height="55" viewBox="0 0 182 55" fill="none" xmlns="http://www.w3.org/2000/svg">
<path fill-rule="evenodd" clip-rule="evenodd" d="M112.904 42.85C102.367 50.6412 87.0405 54.7918 73.8215 54.7918C55.3022 54.7918 38.6988 47.9588 26.0545 36.5919C25.0966 35.6981 25.9269 34.4845 27.1401 35.1869C40.7422 43.1055 57.5373 47.8311 74.9071 47.8311C86.5934 47.8311 99.4929 45.4046 111.371 40.3595C113.158 39.6571 114.628 41.5728 112.903 42.85H112.904Z" fill="#FF9900"/>
<path fill-rule="evenodd" clip-rule="evenodd" d="M117.31 37.805C115.97 36.0809 108.37 36.9748 104.985 37.4219C103.964 37.5495 103.772 36.6556 104.73 36.0169C110.797 31.7383 120.695 33.0154 121.844 34.4204C122.994 35.8254 121.525 45.7867 115.841 50.513C114.947 51.2154 114.116 50.8322 114.5 49.8743C115.778 46.6813 118.651 39.5926 117.31 37.805Z" fill="#FF9900"/>
<path fill-rule="evenodd" clip-rule="evenodd" d="M105.177 6.00376V1.85184C105.17 1.71575 105.191 1.57965 105.24 1.45239C105.289 1.32513 105.364 1.20957 105.46 1.1132C105.556 1.01683 105.672 0.941814 105.799 0.89303C105.926 0.844245 106.063 0.822782 106.199 0.830035H124.718C124.997 0.824166 125.267 0.927934 125.47 1.11902C125.673 1.3101 125.793 1.57324 125.804 1.85184V5.36414C125.804 5.93887 125.293 6.70478 124.399 7.98247L114.82 21.6485C118.396 21.5846 122.164 22.0954 125.357 23.8829C126.059 24.2661 126.251 24.9047 126.315 25.4795V29.8857C126.315 30.5244 125.676 31.2264 124.974 30.8436C119.291 27.8421 111.691 27.5229 105.433 30.9075C104.794 31.2267 104.092 30.5883 104.092 29.9496V25.7353C104.092 25.0967 104.092 23.9478 104.795 22.9256L115.906 7.02459H106.263C105.984 7.03047 105.714 6.92684 105.511 6.73596C105.308 6.54508 105.188 6.28219 105.177 6.00376ZM37.6773 31.7381H32.0577C31.8058 31.7127 31.5693 31.6052 31.3847 31.4321C31.2 31.259 31.0774 31.0299 31.0358 30.7802V1.91576C31.0469 1.6372 31.1668 1.37409 31.3698 1.18301C31.5728 0.99193 31.8427 0.888137 32.1214 0.893955H37.3579C37.6168 0.897871 37.865 0.998195 38.054 1.17533C38.2429 1.35245 38.3591 1.59367 38.3797 1.85184V5.61964H38.5073C39.848 1.97969 42.4667 0.2555 45.9151 0.2555C49.4274 0.2555 51.6624 1.97969 53.1952 5.61964C54.5358 1.97969 57.6653 0.2555 60.9864 0.2555C63.3493 0.2555 65.9037 1.21338 67.5002 3.44857C69.2878 5.87513 68.9052 9.38743 68.9052 12.5166V30.7804C68.8941 31.059 68.7742 31.3221 68.5713 31.5132C68.3683 31.7043 68.0984 31.8081 67.8197 31.8022H62.2632C61.6884 31.7383 61.2414 31.2914 61.2414 30.7804V15.4539C61.2414 14.2406 61.369 11.1753 61.1137 10.0259C60.6668 8.11012 59.4534 7.5354 57.793 7.5354C57.0599 7.55627 56.3489 7.79108 55.7475 8.2109C55.1461 8.63072 54.6806 9.21724 54.4084 9.89824C53.8336 11.3669 53.8975 13.7937 53.8975 15.4539V30.7804C53.8865 31.059 53.7666 31.3221 53.5636 31.5132C53.3606 31.7043 53.0907 31.8081 52.812 31.8022H47.1924C46.6176 31.7383 46.1706 31.2914 46.1706 30.7804V15.4539C46.1706 12.2609 46.6814 7.47147 42.7222 7.47147C38.6991 7.47147 38.8267 12.0693 38.8267 15.4539V30.7804C38.7866 31.0536 38.6471 31.3023 38.4351 31.479C38.223 31.6558 37.9532 31.7481 37.6773 31.7383V31.7381ZM141.768 0.2555C150.134 0.2555 154.668 7.40775 154.668 16.5397C154.668 25.3524 149.687 32.3768 141.768 32.3768C133.594 32.3768 129.124 25.2245 129.124 16.2842C129.06 7.2799 133.594 0.254724 141.768 0.254724V0.2555ZM141.768 6.19436C137.618 6.19436 137.362 11.8779 137.362 15.3902C137.362 18.9025 137.298 26.4379 141.705 26.4379C146.047 26.4379 146.303 20.3712 146.303 16.6673C146.303 14.2406 146.175 11.3032 145.472 9.00408C144.834 6.96047 143.557 6.19436 141.768 6.19436ZM165.46 31.7381H159.841C159.266 31.6742 158.819 31.2273 158.819 30.7163V1.78752C158.854 1.52382 158.983 1.2817 159.183 1.1057C159.382 0.929694 159.639 0.831665 159.905 0.829644H165.141C165.379 0.838017 165.607 0.923615 165.791 1.07345C165.976 1.22328 166.106 1.42916 166.163 1.65987V6.06613H166.291C167.887 2.10676 170.058 0.254913 173.954 0.254913C176.444 0.254913 178.935 1.14868 180.531 3.63956C182 5.93848 182 9.83392 182 12.6438V30.8438C181.962 31.1006 181.829 31.334 181.629 31.4991C181.428 31.6641 181.174 31.7491 180.914 31.7375H175.294C174.784 31.6736 174.336 31.2907 174.273 30.8438V15.1347C174.273 11.9417 174.656 7.34343 170.76 7.34343C169.42 7.34343 168.142 8.23719 167.503 9.64235C166.737 11.4299 166.61 13.1546 166.61 15.1343V30.7169C166.574 30.9974 166.438 31.2555 166.227 31.4433C166.015 31.6312 165.743 31.7361 165.46 31.7387L165.46 31.7381ZM90.4257 17.9446C90.4257 20.1159 90.4896 21.9677 89.4039 23.9484C88.5101 25.5449 87.1049 26.5028 85.5084 26.5028C83.3371 26.5028 82.06 24.8425 82.06 22.4158C82.06 17.6264 86.3386 16.7322 90.4257 16.7322V17.9446ZM96.1092 31.6744C95.9272 31.8333 95.7 31.931 95.4594 31.9539C95.2189 31.9768 94.9773 31.9237 94.7686 31.8021C92.9167 30.2694 92.5342 29.5031 91.5118 28.0343C88.4465 31.1624 86.2114 32.1213 82.2522 32.1213C77.5265 32.1213 73.8226 29.1837 73.8226 23.3725C73.8226 18.7747 76.3131 15.7094 79.8264 14.1766C82.8916 12.836 87.1708 12.5801 90.427 12.197V11.4946C90.427 10.1539 90.5547 8.55701 89.7246 7.40755C89.0223 6.38575 87.7449 5.93886 86.5965 5.93886C84.4252 5.93886 82.5094 7.0244 82.0624 9.32351C81.9347 9.83431 81.6155 10.3453 81.1045 10.3453L75.6764 9.77058C75.2295 9.64293 74.7185 9.3237 74.8462 8.62113C76.1233 1.97969 82.0624 0 87.4265 0C90.1725 0 93.7485 0.702381 95.9198 2.80972C98.6658 5.36414 98.4103 8.81348 98.4103 12.5164V21.2652C98.4103 23.8835 99.4958 25.033 100.518 26.5016C100.901 27.0124 100.964 27.6511 100.518 27.9703C99.3042 28.9282 97.2608 30.7163 96.1114 31.6742L96.1092 31.6744ZM16.6674 17.9446C16.6674 20.1159 16.7314 21.9677 15.6456 23.9484C14.7519 25.5449 13.3467 26.5028 11.7502 26.5028C9.57892 26.5028 8.3018 24.8425 8.3018 22.4158C8.3018 17.6264 12.5804 16.7322 16.6674 16.7322V17.9446ZM22.2871 31.6744C22.1051 31.8333 21.8778 31.931 21.6373 31.9539C21.3968 31.9768 21.1551 31.9237 20.9464 31.8021C19.0946 30.2694 18.712 29.5031 17.6896 28.0343C14.6244 31.1624 12.3892 32.1213 8.43004 32.1213C3.70436 32.1213 0.000488281 29.1837 0.000488281 23.3725C0.000488281 18.7747 2.49098 15.7094 6.00425 14.1766C9.06947 12.836 13.3487 12.5801 16.6049 12.197V11.4946C16.6049 10.1539 16.7325 8.55701 15.9025 7.40755C15.2001 6.38575 13.9228 5.93886 12.7743 5.93886C10.6031 5.93886 8.68729 7.0244 8.24021 9.32351C8.11256 9.83431 7.79333 10.3453 7.28233 10.3453L1.85427 9.77058C1.40739 9.64293 0.89639 9.3237 1.02404 8.62113C2.30115 1.97969 8.24021 0 13.6043 0C16.3503 0 19.9264 0.702381 22.0976 2.80972C24.8436 5.36414 24.5881 8.81348 24.5881 12.5164V21.2652C24.5881 23.8835 25.6737 25.033 26.6955 26.5016C27.0786 27.0124 27.1423 27.6511 26.6955 27.9703C25.4821 28.9282 23.4387 30.7163 22.2892 31.6742L22.2871 31.6744Z" fill="white"/>
</svg>
